<svg width="115" height="20" viewBox="0 0 115 20" fill="none" xmlns="http://www.w3.org/2000/svg">
<path d="M6.79701 1.85947V11.6446C6.78724 12.9044 6.24037 13.5587 5.23451 13.5587C4.27748 13.5587 3.68178 12.9435 3.65248 11.8399H0.332166C0.312635 14.8478 2.42201 16.1954 5.0392 16.1954C8.01771 16.1954 10.0783 14.3985 10.0783 11.6446V1.85947H6.79701Z" fill="white"/>
<path d="M19.0431 11.4298C19.0529 12.7091 18.2228 13.4024 17.2072 13.4024C16.1525 13.4024 15.5079 12.6896 15.5079 11.5274V5.39463H12.2072V12.1524C12.2169 14.5646 13.672 16.1368 15.84 16.1368C17.4318 16.1368 18.6134 15.3263 19.0822 14.047H19.1994V16.0001H22.3244V5.39463H19.0431V11.4298Z" fill="white"/>
<path d="M24.4728 16.0001H27.7931V10.2774H33.4767V16.0001H36.797V1.85947H33.4767V7.5626H27.7931V1.85947H24.4728V16.0001Z" fill="white"/>
<path d="M40.84 19.9845C43.3302 19.9747 44.5216 18.7735 45.1173 17.0353L49.1408 5.39463H45.6642L43.6525 13.0118H43.5353L41.5236 5.39463H38.0861L41.8556 16.3712L41.7384 16.7032C41.4552 17.4063 41.0255 17.4649 40.4884 17.4649C40.088 17.4649 39.629 17.4552 39.1994 17.4259V19.9259C39.629 19.9649 40.215 19.9747 40.84 19.9845Z" fill="white"/>
<path d="M57.2462 11.4298C57.256 12.7091 56.4259 13.4024 55.4103 13.4024C54.3556 13.4024 53.7111 12.6896 53.7111 11.5274V5.39463H50.4103V12.1524C50.4201 14.5646 51.8751 16.1368 54.0431 16.1368C55.6349 16.1368 56.8165 15.3263 57.2853 14.047H57.4025V16.0001H60.5275V5.39463H57.2462V11.4298Z" fill="white"/>
<path d="M65.9572 9.92588C65.9572 8.69541 66.6798 7.96299 67.7736 7.95322C68.8673 7.96299 69.5119 8.67588 69.5119 9.86729V16.0001H72.7931V9.24229C72.8029 6.83994 71.3576 5.25791 69.1212 5.25791C67.5587 5.25791 66.3771 6.04893 65.8986 7.32822H65.7814V5.39463H62.6564V16.0001H65.9572V9.92588Z" fill="white"/>
<path d="M79.3556 16.0001H82.6759V12.1329L84.0822 10.3946L87.6564 16.0001H91.6408L86.504 8.16807L91.5626 1.85947H87.6173L82.8712 7.89463H82.6759V1.85947H79.3556V16.0001Z" fill="white"/>
<path d="M93.5353 16.0001H96.8361V5.39463H93.5353V16.0001ZM93.4962 2.54307C93.4962 3.42197 94.2579 4.1251 95.1954 4.1251C96.1427 4.1251 96.9044 3.42197 96.9142 2.54307C96.9044 1.66416 96.1427 0.951271 95.1954 0.961037C94.2579 0.951271 93.4962 1.66416 93.4962 2.54307Z" fill="white"/>
<path d="M98.9454 16.0001H102.246V9.71104C102.236 8.62705 102.881 7.93369 103.789 7.93369C104.678 7.93369 105.274 8.55869 105.274 9.55479V16.0001H108.438V9.63291C108.438 8.60752 109.014 7.93369 109.961 7.93369C110.85 7.93369 111.475 8.50986 111.465 9.59385V16.0001H114.766V8.85166C114.766 6.60557 113.379 5.25791 111.387 5.25791C109.824 5.25791 108.594 6.06846 108.184 7.32822H108.067C107.783 6.05869 106.66 5.25791 105.195 5.25791C103.74 5.25791 102.637 6.03916 102.188 7.32822H102.07V5.39463H98.9454V16.0001Z" fill="white"/>
</svg>
