<svg width="65" height="16" viewBox="0 0 65 16" fill="none" xmlns="http://www.w3.org/2000/svg">
<path d="M5.20801 14.868H5.54323e-06V-1.91331e-05H5.29201C9.74401 0.0209806 12.495 2.79298 12.474 7.43398C12.495 12.075 9.74401 14.868 5.20801 14.868ZM3.06601 12.222H5.08201C7.91701 12.222 9.40801 10.752 9.40801 7.43398C9.40801 4.11598 7.91701 2.66698 5.12401 2.64598H3.06601V12.222ZM19.7021 15.078C16.2581 15.078 14.1791 12.873 14.1581 9.36598C14.1791 5.92198 16.3001 3.59098 19.5761 3.56998C22.4741 3.59098 24.7841 5.43898 24.7841 9.23998V10.08H17.1821C17.1821 11.76 18.1691 12.81 19.7441 12.81C20.7731 12.81 21.5081 12.348 21.8021 11.718H24.7001C24.2591 13.755 22.4321 15.078 19.7021 15.078ZM17.1821 8.18998H21.9281C21.9071 6.82498 20.9621 5.85898 19.6181 5.83798C18.1901 5.85898 17.2241 6.90898 17.1821 8.18998ZM26.1747 11.76C26.1747 9.26098 28.1697 8.46298 30.2907 8.31598L33.0627 8.18998V7.30798C33.0627 6.34198 32.4117 5.81698 31.2987 5.79598C30.2487 5.81698 29.5977 6.27898 29.4507 7.05598H26.5527C26.7207 5.10298 28.4217 3.59098 31.3827 3.56998C33.7977 3.59098 36.0867 4.68298 36.0867 7.34998V14.868H33.2307V13.314H33.1047C32.5797 14.364 31.5297 15.078 29.8707 15.078C27.7497 15.078 26.1747 13.965 26.1747 11.76ZM29.0727 11.676C29.0727 12.516 29.7657 12.978 30.7107 12.978C32.1177 12.978 33.0837 12.054 33.0627 10.878V10.08C32.6007 10.101 31.2987 10.164 30.7947 10.206C29.7447 10.311 29.0727 10.815 29.0727 11.676ZM38.3887 14.868V3.73798H41.3287V5.66998H41.4547C41.8537 4.28398 42.8827 3.56998 44.1427 3.56998C44.4577 3.56998 44.8357 3.61198 45.1087 3.65398V6.38398C44.8357 6.27898 44.2477 6.21598 43.8067 6.21598C42.4417 6.21598 41.4337 7.16098 41.4127 8.52598V14.868H38.3887ZM47.1058 15.036C46.1398 15.057 45.3418 14.28 45.3838 13.314C45.3418 12.39 46.1398 11.613 47.1058 11.634C48.0088 11.613 48.8068 12.39 48.8278 13.314C48.8068 14.28 48.0088 15.057 47.1058 15.036ZM61.3956 -1.91331e-05H64.4616V10.374C64.4406 13.272 62.4036 15.078 59.4216 15.078C56.7336 15.078 54.6336 13.65 54.6336 10.71H57.6996C57.7416 11.907 58.4556 12.579 59.5476 12.6C60.7446 12.579 61.3956 11.823 61.3956 10.374V-1.91331e-05Z" fill="white"/>
</svg>
