<svg width="128" height="21" viewBox="0 0 128 21" fill="none" xmlns="http://www.w3.org/2000/svg">
<path d="M6.762 0.819012H9.828V11.193C9.807 14.091 7.77 15.897 4.788 15.897C2.1 15.897 1.86078e-06 14.469 1.86078e-06 11.529H3.066C3.108 12.726 3.822 13.398 4.914 13.419C6.111 13.398 6.762 12.642 6.762 11.193V0.819012ZM12.2609 15.687V4.55701H15.2849V15.687H12.2609ZM12.0929 1.53301C12.1139 0.693011 12.8489 1.09076e-05 13.7729 0.0210106C14.6759 1.09076e-05 15.4109 0.693011 15.4109 1.53301C15.4109 2.39401 14.6759 3.08701 13.7729 3.08701C12.8489 3.08701 12.1139 2.39401 12.0929 1.53301ZM19.4809 19.845C18.8719 19.866 18.3259 19.845 17.9269 19.803V17.451C18.3259 17.472 18.7879 17.493 19.1449 17.493C19.7749 17.493 20.2579 17.43 20.6149 16.485L20.7829 15.981L16.7929 4.55701H19.9849L22.3369 12.747H22.4629L24.8149 4.55701H28.0069L23.6809 16.905C23.0299 18.711 21.8329 19.866 19.4809 19.845ZM34.1378 15.897C30.7568 15.897 28.6568 13.587 28.6358 10.143C28.6568 6.72001 30.7568 4.41001 34.1378 4.38901C37.4978 4.41001 39.5768 6.72001 39.5978 10.143C39.5768 13.587 37.4978 15.897 34.1378 15.897ZM31.7438 10.143C31.7228 12.096 32.5418 13.545 34.1378 13.545C35.6918 13.545 36.5108 12.096 36.4898 10.143C36.5108 8.19001 35.6918 6.72001 34.1378 6.74101C32.5418 6.72001 31.7228 8.19001 31.7438 10.143ZM48.6245 10.941V4.55701H51.6485V15.687H48.7505V13.671H48.6245C48.1415 14.973 46.9235 15.834 45.2645 15.813C43.0175 15.834 41.5055 14.259 41.4845 11.655V4.55701H44.5085V11.109C44.5295 12.432 45.2855 13.251 46.4825 13.251C47.5955 13.251 48.6455 12.474 48.6245 10.941ZM57.0593 9.21901V15.687H54.0353V4.55701H56.9333V6.48901H57.0593C57.5633 5.20801 58.7603 4.41001 60.4193 4.38901C62.7293 4.41001 64.2623 5.98501 64.2413 8.58901V15.687H61.2173V9.13501C61.2173 7.74901 60.4823 6.93001 59.2013 6.90901C57.9413 6.93001 57.0803 7.77001 57.0593 9.21901ZM71.5841 20.097C68.5391 20.097 66.6281 18.711 66.4601 16.611H69.4421C69.6101 17.493 70.4501 17.892 71.6681 17.913C73.0751 17.892 74.0201 17.304 74.0201 15.771V13.713H73.8941C73.4741 14.616 72.4871 15.519 70.7021 15.519C68.1821 15.519 66.1661 13.755 66.1661 10.059C66.1661 6.27901 68.2451 4.41001 70.7021 4.38901C72.5711 4.41001 73.4741 5.52301 73.8941 6.40501H74.0201V4.55701H77.0021V15.813C77.0021 18.648 74.7761 20.097 71.5841 20.097ZM69.2741 10.101C69.2741 12.012 70.1141 13.251 71.6681 13.251C73.1591 13.251 74.0201 12.054 74.0201 10.101C74.0201 8.10601 73.1801 6.82501 71.6681 6.82501C70.0931 6.82501 69.2741 8.16901 69.2741 10.101ZM94.1983 6.02701C93.9673 4.36801 92.6863 3.36001 90.9643 3.38101C88.6543 3.36001 87.1213 5.14501 87.1423 8.25301C87.1213 11.466 88.6753 13.146 90.9643 13.167C92.6443 13.146 93.9043 12.222 94.1983 10.647H97.3063C96.9703 13.398 94.6813 15.897 90.8803 15.897C86.9323 15.897 83.9923 13.104 83.9923 8.25301C83.9923 3.42301 86.9743 0.630012 90.8803 0.651011C94.3243 0.630012 96.9073 2.60401 97.3063 6.02701H94.1983ZM102.423 9.21901V15.687H99.3986V0.819012H102.339V6.48901H102.507C102.99 5.20801 104.124 4.41001 105.825 4.38901C108.135 4.41001 109.668 5.96401 109.647 8.58901V15.687H106.623V9.13501C106.644 7.74901 105.888 6.93001 104.607 6.90901C103.347 6.93001 102.444 7.77001 102.423 9.21901ZM117.03 15.897C113.649 15.897 111.549 13.587 111.528 10.143C111.549 6.72001 113.649 4.41001 117.03 4.38901C120.39 4.41001 122.469 6.72001 122.49 10.143C122.469 13.587 120.39 15.897 117.03 15.897ZM114.636 10.143C114.615 12.096 115.434 13.545 117.03 13.545C118.584 13.545 119.403 12.096 119.382 10.143C119.403 8.19001 118.584 6.72001 117.03 6.74101C115.434 6.72001 114.615 8.19001 114.636 10.143ZM124.377 15.687V4.55701H127.401V15.687H124.377ZM124.209 1.53301C124.23 0.693011 124.965 1.09076e-05 125.889 0.0210106C126.792 1.09076e-05 127.527 0.693011 127.527 1.53301C127.527 2.39401 126.792 3.08701 125.889 3.08701C124.965 3.08701 124.23 2.39401 124.209 1.53301Z" fill="white"/>
</svg>
