<svg width="105" height="21" viewBox="0 0 105 21" fill="none" xmlns="http://www.w3.org/2000/svg">
<path d="M6.79677 1.85935V11.6445C6.787 12.9043 6.24012 13.5586 5.23427 13.5586C4.27723 13.5586 3.68153 12.9433 3.65223 11.8398H0.331922C0.31239 14.8476 2.42177 16.1953 5.03895 16.1953C8.01747 16.1953 10.078 14.3984 10.078 11.6445V1.85935H6.79677Z" fill="white"/>
<path d="M11.7186 13.0508C11.7089 15.1504 13.1835 16.1855 15.2147 16.1953C16.6991 16.1855 17.7245 15.5898 18.3007 14.5156H18.3788V16H21.4843V8.79295C21.4745 6.49802 19.4335 5.25779 16.8163 5.25779C13.8378 5.25779 12.2557 6.80076 12.1093 8.67576H15.1757C15.3026 7.9824 15.869 7.59177 16.7382 7.60154C17.6366 7.59177 18.1835 8.0117 18.1835 8.75388V9.61326C17.7343 9.63279 16.4159 9.68162 15.6444 9.73045C13.535 9.8574 11.7089 10.6972 11.7186 13.0508ZM14.8436 12.914C14.8339 12.2109 15.3612 11.7519 16.1913 11.664C16.6893 11.6152 17.8026 11.5566 18.203 11.5469V12.2304C18.2128 13.2754 17.3339 14.0078 16.2108 14.0078C15.41 14.0078 14.8339 13.6269 14.8436 12.914Z" fill="white"/>
<path d="M25.0194 19.9844C27.5097 19.9746 28.7011 18.7734 29.2968 17.0351L33.3202 5.39451H29.8436L27.8319 13.0117H27.7147L25.703 5.39451H22.2655L26.035 16.3711L25.9179 16.7031C25.6347 17.4062 25.205 17.4648 24.6679 17.4648C24.2675 17.4648 23.8085 17.4551 23.3788 17.4258V19.9258C23.8085 19.9648 24.3944 19.9746 25.0194 19.9844Z" fill="white"/>
<path d="M35.7811 16.1953C36.7186 16.1953 37.5487 15.4043 37.5585 14.4179C37.5487 13.4609 36.7186 12.6797 35.7811 12.6797C34.8143 12.6797 34.0038 13.4609 34.0233 14.4179C34.0038 15.4043 34.8143 16.1953 35.7811 16.1953Z" fill="white"/>
<path d="M44.9608 16C49.2772 16 51.9335 13.3437 51.9335 8.92966C51.9335 4.50584 49.2772 1.85935 44.9608 1.85935H39.785V16H44.9608ZM43.1054 13.1484V4.69138H44.8046C47.2655 4.70115 48.5936 5.85349 48.5936 8.92966C48.5936 11.9961 47.2655 13.1582 44.8436 13.1484H43.1054Z" fill="white"/>
<path d="M58.828 16.1953C61.5722 16.1953 63.3886 14.8672 63.789 12.7969H60.7225C60.4589 13.4219 59.785 13.8125 58.8866 13.8125C57.5487 13.8125 56.7284 12.9238 56.7186 11.5664V11.5078H63.828V10.6679C63.828 7.15232 61.6893 5.25779 58.7108 5.25779C55.5272 5.25779 53.4765 7.45506 53.4765 10.7461C53.4765 14.125 55.5077 16.1953 58.828 16.1953ZM56.7186 9.5742C56.7675 8.48045 57.6268 7.6406 58.789 7.6406C59.9218 7.6406 60.7421 8.44138 60.7616 9.5742H56.7186Z" fill="white"/>
<path d="M71.6405 8.67576H74.7069C74.5702 6.55662 72.8319 5.25779 69.9804 5.25779C67.119 5.25779 65.3124 6.51756 65.3319 8.61716C65.3124 10.2383 66.3671 11.2929 68.4569 11.6836L70.2733 12.0156C71.1913 12.2109 71.6015 12.4941 71.621 12.9726C71.6015 13.5586 70.9862 13.9004 70.0975 13.9101C69.1112 13.9004 68.4667 13.5 68.3397 12.7383H65.0585C65.2831 14.8476 67.0409 16.1953 70.078 16.1953C72.9491 16.1953 74.9413 14.789 74.9608 12.6211C74.9413 11.0781 73.9257 10.1601 71.8163 9.74998L69.8046 9.35935C68.8964 9.18357 68.5839 8.84177 68.5936 8.44138C68.5839 7.88474 69.2186 7.52341 70.039 7.52341C70.9081 7.52341 71.5526 7.97263 71.6405 8.67576Z" fill="white"/>
<path d="M76.5819 16H79.8827V5.39451H76.5819V16ZM76.5429 2.54295C76.5429 3.42185 77.3046 4.12498 78.2421 4.12498C79.1893 4.12498 79.9511 3.42185 79.9608 2.54295C79.9511 1.66404 79.1893 0.951149 78.2421 0.960915C77.3046 0.951149 76.5429 1.66404 76.5429 2.54295Z" fill="white"/>
<path d="M86.914 20.1992C90.078 20.1992 92.246 18.7539 92.246 16.0586V5.39451H88.9647V7.21091H88.8671C88.4667 6.25388 87.5585 5.25779 85.8593 5.25779C83.6229 5.25779 81.621 6.95701 81.621 10.6679C81.621 14.2519 83.535 15.8535 85.8788 15.8633C87.4608 15.8535 88.4862 15.1015 88.8866 14.1445H89.0038V16.0195C89.0038 17.3965 88.1835 17.9043 86.9921 17.8945C85.9667 17.9043 85.2343 17.5722 85.0975 16.8008H81.8944C82.0409 18.8222 83.8671 20.1992 86.914 20.1992ZM84.9999 10.6679C84.9999 8.95896 85.703 7.83591 86.9921 7.83591C88.2714 7.83591 89.0136 8.92966 89.0038 10.6679C89.0136 12.416 88.2714 13.4414 86.9921 13.4414C85.7128 13.4414 84.9999 12.4062 84.9999 10.6679Z" fill="white"/>
<path d="M97.6561 9.92576C97.6561 8.69529 98.3788 7.96287 99.4725 7.9531C100.566 7.96287 101.211 8.67576 101.211 9.86716V16H104.492V9.24216C104.502 6.83982 103.057 5.25779 100.82 5.25779C99.2577 5.25779 98.0761 6.04881 97.5975 7.3281H97.4804V5.39451H94.3554V16H97.6561V9.92576Z" fill="white"/>
</svg>
